<mxfile host="Electron" agent="Mozilla/5.0 (Macintosh; Intel Mac OS X 10_15_7) AppleWebKit/537.36 (KHTML, like Gecko) draw.io/24.7.17 Chrome/128.0.6613.36 Electron/32.0.1 Safari/537.36" version="24.7.17">
  <diagram name="Page-1" id="UBZQm_AgwqF61lSg1ZxO">
    <mxGraphModel dx="1114" dy="821" grid="1" gridSize="10" guides="1" tooltips="1" connect="1" arrows="1" fold="1" page="1" pageScale="1" pageWidth="827" pageHeight="1169" math="0" shadow="0">
      <root>
        <mxCell id="0" />
        <mxCell id="1" parent="0" />
        <mxCell id="bDWK3yxezRucaELuop_J-1" value="&lt;span style=&quot;background-color: rgb(151, 208, 119);&quot;&gt;크리에이티브 바운디드 컨텍스트&lt;/span&gt;" style="rounded=0;whiteSpace=wrap;html=1;horizontal=1;verticalAlign=top;fontStyle=1;fontSize=14;" vertex="1" parent="1">
          <mxGeometry x="50" y="90" width="210" height="50" as="geometry" />
        </mxCell>
        <mxCell id="bDWK3yxezRucaELuop_J-2" value="&lt;span style=&quot;background-color: rgb(151, 208, 119);&quot;&gt;퍼블리싱 바운디드 컨텍스트&lt;/span&gt;" style="rounded=0;whiteSpace=wrap;html=1;horizontal=1;verticalAlign=top;fontStyle=1;fontSize=14;" vertex="1" parent="1">
          <mxGeometry x="300" y="90" width="210" height="50" as="geometry" />
        </mxCell>
        <mxCell id="bDWK3yxezRucaELuop_J-3" value="&lt;span style=&quot;background-color: rgb(151, 208, 119);&quot;&gt;CRM 바운디드 컨텍스트&lt;/span&gt;" style="rounded=0;whiteSpace=wrap;html=1;horizontal=1;verticalAlign=top;fontStyle=1;fontSize=14;" vertex="1" parent="1">
          <mxGeometry x="50" y="160" width="210" height="50" as="geometry" />
        </mxCell>
        <mxCell id="bDWK3yxezRucaELuop_J-4" value="&lt;span style=&quot;background-color: rgb(151, 208, 119);&quot;&gt;권한부여 바운디드 컨텍스트&lt;/span&gt;" style="rounded=0;whiteSpace=wrap;html=1;horizontal=1;verticalAlign=top;fontStyle=1;fontSize=14;" vertex="1" parent="1">
          <mxGeometry x="300" y="160" width="210" height="50" as="geometry" />
        </mxCell>
        <mxCell id="bDWK3yxezRucaELuop_J-5" value="&lt;span style=&quot;background-color: rgb(151, 208, 119);&quot;&gt;회계 바운디드 컨텍스트&lt;/span&gt;" style="rounded=0;whiteSpace=wrap;html=1;horizontal=1;verticalAlign=top;fontStyle=1;fontSize=14;" vertex="1" parent="1">
          <mxGeometry x="50" y="230" width="210" height="50" as="geometry" />
        </mxCell>
        <mxCell id="bDWK3yxezRucaELuop_J-6" value="&lt;span style=&quot;background-color: rgb(151, 208, 119);&quot;&gt;전화 바운디드 컨텍스트&lt;/span&gt;" style="rounded=0;whiteSpace=wrap;html=1;horizontal=1;verticalAlign=top;fontStyle=1;fontSize=14;" vertex="1" parent="1">
          <mxGeometry x="300" y="230" width="210" height="50" as="geometry" />
        </mxCell>
      </root>
    </mxGraphModel>
  </diagram>
</mxfile>
